<?xml version="1.0" encoding="UTF-8" standalone="no"?>
<!DOCTYPE svg PUBLIC "-//W3C//DTD SVG 1.1//EN"
 "http://www.w3.org/Graphics/SVG/1.1/DTD/svg11.dtd">
<!-- Generated by graphviz version 3.0.0 (20220226.1711)
 -->
<!-- Title: Ecology Pages: 1 -->
<svg width="250pt" height="260pt"
 viewBox="0.00 0.00 250.44 260.00" xmlns="http://www.w3.org/2000/svg" xmlns:xlink="http://www.w3.org/1999/xlink">
<g id="graph0" class="graph" transform="scale(1 1) rotate(0) translate(4 256)">
<title>Ecology</title>
<polygon fill="#ffcf80" stroke="transparent" points="-4,4 -4,-256 246.44,-256 246.44,4 -4,4"/>
<!-- Gene_Def -->
<g id="node1" class="node">
<title>Gene_Def</title>
<ellipse fill="Red" stroke="black" cx="53.95" cy="-234" rx="53.89" ry="18"/>
<text text-anchor="middle" x="53.95" y="-230.3" font-family="Helvetica,sans-Serif" font-size="14.00" fill="White">Gene_Def</text>
</g>
<!-- Genetic_Map -->
<g id="node2" class="node">
<title>Genetic_Map</title>
<ellipse fill="Red" stroke="black" cx="71.95" cy="-162" rx="65.79" ry="18"/>
<text text-anchor="middle" x="71.95" y="-158.3" font-family="Helvetica,sans-Serif" font-size="14.00" fill="White">Genetic_Map</text>
</g>
<!-- Gene_Def&#45;&gt;Genetic_Map -->
<g id="edge4" class="edge">
<title>Gene_Def&#45;&gt;Genetic_Map</title>
<path fill="none" stroke="black" stroke-dasharray="1,5" d="M58.3,-216.05C60.31,-208.26 62.73,-198.82 64.98,-190.08"/>
<polygon fill="black" stroke="black" points="68.4,-190.83 67.5,-180.28 61.62,-189.09 68.4,-190.83"/>
</g>
<!-- Default_Scenario -->
<g id="node3" class="node">
<title>Default_Scenario</title>
<ellipse fill="Red" stroke="black" cx="118.95" cy="-90" rx="81.79" ry="18"/>
<text text-anchor="middle" x="118.95" y="-86.3" font-family="Helvetica,sans-Serif" font-size="14.00" fill="White">Default_Scenario</text>
</g>
<!-- Genetic_Map&#45;&gt;Default_Scenario -->
<g id="edge1" class="edge">
<title>Genetic_Map&#45;&gt;Default_Scenario</title>
<path fill="none" stroke="black" d="M83.32,-144.05C88.84,-135.84 95.59,-125.79 101.72,-116.66"/>
<polygon fill="black" stroke="black" points="104.68,-118.53 107.35,-108.28 98.87,-114.63 104.68,-118.53"/>
</g>
<!-- Void_Scenario -->
<g id="node5" class="node">
<title>Void_Scenario</title>
<ellipse fill="Red" stroke="black" cx="118.95" cy="-18" rx="71.49" ry="18"/>
<text text-anchor="middle" x="118.95" y="-14.3" font-family="Helvetica,sans-Serif" font-size="14.00" fill="White">Void_Scenario</text>
</g>
<!-- Default_Scenario&#45;&gt;Void_Scenario -->
<g id="edge3" class="edge">
<title>Default_Scenario&#45;&gt;Void_Scenario</title>
<path fill="none" stroke="black" d="M118.95,-71.7C118.95,-63.98 118.95,-54.71 118.95,-46.11"/>
<polygon fill="black" stroke="black" points="122.45,-46.1 118.95,-36.1 115.45,-46.1 122.45,-46.1"/>
</g>
<!-- Parameters -->
<g id="node4" class="node">
<title>Parameters</title>
<ellipse fill="Red" stroke="black" cx="183.95" cy="-234" rx="58.49" ry="18"/>
<text text-anchor="middle" x="183.95" y="-230.3" font-family="Helvetica,sans-Serif" font-size="14.00" fill="White">Parameters</text>
</g>
<!-- Parameters&#45;&gt;Default_Scenario -->
<g id="edge2" class="edge">
<title>Parameters&#45;&gt;Default_Scenario</title>
<path fill="none" stroke="black" d="M177.44,-216.07C170.39,-198.01 158.56,-168.68 146.95,-144 142.76,-135.11 137.85,-125.56 133.32,-117.06"/>
<polygon fill="black" stroke="black" points="136.26,-115.12 128.43,-107.98 130.1,-118.45 136.26,-115.12"/>
</g>
</g>
</svg>
