<?xml version="1.0" encoding="UTF-8" standalone="no"?>
<!DOCTYPE svg PUBLIC "-//W3C//DTD SVG 1.1//EN"
 "http://www.w3.org/Graphics/SVG/1.1/DTD/svg11.dtd">
<!-- Generated by graphviz version 3.0.0 (20220226.1711)
 -->
<!-- Title: EvolifeGraphics Pages: 1 -->
<svg width="533pt" height="580pt"
 viewBox="0.00 0.00 533.00 580.00" xmlns="http://www.w3.org/2000/svg" xmlns:xlink="http://www.w3.org/1999/xlink">
<g id="graph0" class="graph" transform="scale(1 1) rotate(0) translate(4 576)">
<title>EvolifeGraphics</title>
<polygon fill="#ffcf80" stroke="transparent" points="-4,4 -4,-576 529,-576 529,4 -4,4"/>
<g id="clust1" class="cluster">
<title>clusterGraphics</title>
<polygon fill="#ffcf80" stroke="black" points="8,-8 8,-564 517,-564 517,-8 8,-8"/>
</g>
<!-- Image_Area -->
<g id="node1" class="node">
<title>Image_Area</title>
<ellipse fill="Red" stroke="black" cx="373" cy="-466" rx="61.99" ry="18"/>
<text text-anchor="middle" x="373" y="-462.3" font-family="Helvetica,sans-Serif" font-size="14.00" fill="White">Image_Area</text>
</g>
<!-- Draw_Area -->
<g id="node2" class="node">
<title>Draw_Area</title>
<ellipse fill="Red" stroke="black" cx="267" cy="-394" rx="56.59" ry="18"/>
<text text-anchor="middle" x="267" y="-390.3" font-family="Helvetica,sans-Serif" font-size="14.00" fill="White">Draw_Area</text>
</g>
<!-- Image_Area&#45;&gt;Draw_Area -->
<g id="edge1" class="edge">
<title>Image_Area&#45;&gt;Draw_Area</title>
<path fill="none" stroke="black" d="M349.21,-449.29C334.38,-439.5 315.11,-426.77 298.95,-416.1"/>
<polygon fill="black" stroke="black" points="300.62,-413.01 290.34,-410.42 296.76,-418.85 300.62,-413.01"/>
</g>
<!-- AreaView -->
<g id="node5" class="node">
<title>AreaView</title>
<ellipse fill="Red" stroke="black" cx="271" cy="-250" rx="50.09" ry="18"/>
<text text-anchor="middle" x="271" y="-246.3" font-family="Helvetica,sans-Serif" font-size="14.00" fill="White">AreaView</text>
</g>
<!-- Image_Area&#45;&gt;AreaView -->
<g id="edge7" class="edge">
<title>Image_Area&#45;&gt;AreaView</title>
<path fill="none" stroke="black" stroke-dasharray="1,5" d="M373.12,-447.59C372.56,-416.42 367.76,-350.03 339,-304 330.75,-290.8 317.98,-279.58 305.73,-270.9"/>
<polygon fill="black" stroke="black" points="307.64,-267.97 297.39,-265.31 303.75,-273.79 307.64,-267.97"/>
</g>
<!-- Genome_window -->
<g id="node8" class="node">
<title>Genome_window</title>
<ellipse fill="Red" stroke="black" cx="426" cy="-34" rx="82.59" ry="18"/>
<text text-anchor="middle" x="426" y="-30.3" font-family="Helvetica,sans-Serif" font-size="14.00" fill="White">Genome_window</text>
</g>
<!-- Image_Area&#45;&gt;Genome_window -->
<g id="edge13" class="edge">
<title>Image_Area&#45;&gt;Genome_window</title>
<path fill="none" stroke="black" stroke-dasharray="1,5" d="M380.89,-447.93C392.29,-421.67 412,-369.53 412,-323 412,-323 412,-323 412,-177 412,-136.8 417.62,-90.51 421.74,-62"/>
<polygon fill="black" stroke="black" points="425.22,-62.4 423.23,-52 418.3,-61.37 425.22,-62.4"/>
</g>
<!-- Plot_Area -->
<g id="node3" class="node">
<title>Plot_Area</title>
<ellipse fill="Red" stroke="black" cx="271" cy="-322" rx="51.99" ry="18"/>
<text text-anchor="middle" x="271" y="-318.3" font-family="Helvetica,sans-Serif" font-size="14.00" fill="White">Plot_Area</text>
</g>
<!-- Draw_Area&#45;&gt;Plot_Area -->
<g id="edge2" class="edge">
<title>Draw_Area&#45;&gt;Plot_Area</title>
<path fill="none" stroke="black" d="M267.99,-375.7C268.43,-367.98 268.96,-358.71 269.45,-350.11"/>
<polygon fill="black" stroke="black" points="272.95,-350.29 270.02,-340.1 265.96,-349.89 272.95,-350.29"/>
</g>
<!-- Ground -->
<g id="node4" class="node">
<title>Ground</title>
<ellipse fill="Red" stroke="black" cx="159" cy="-322" rx="41.69" ry="18"/>
<text text-anchor="middle" x="159" y="-318.3" font-family="Helvetica,sans-Serif" font-size="14.00" fill="White">Ground</text>
</g>
<!-- Draw_Area&#45;&gt;Ground -->
<g id="edge3" class="edge">
<title>Draw_Area&#45;&gt;Ground</title>
<path fill="none" stroke="black" d="M243.3,-377.64C227.54,-367.43 206.7,-353.91 189.68,-342.88"/>
<polygon fill="black" stroke="black" points="191.47,-339.87 181.17,-337.37 187.66,-345.75 191.47,-339.87"/>
</g>
<!-- Draw_Area&#45;&gt;AreaView -->
<g id="edge8" class="edge">
<title>Draw_Area&#45;&gt;AreaView</title>
<path fill="none" stroke="black" stroke-dasharray="1,5" d="M294.85,-378.27C308.76,-369.25 324.25,-356.31 332,-340 338.86,-325.55 338.64,-318.56 332,-304 326.16,-291.18 315.51,-280.27 304.73,-271.73"/>
<polygon fill="black" stroke="black" points="306.66,-268.81 296.54,-265.68 302.5,-274.44 306.66,-268.81"/>
</g>
<!-- Network_window -->
<g id="node9" class="node">
<title>Network_window</title>
<ellipse fill="Red" stroke="black" cx="95" cy="-34" rx="79.09" ry="18"/>
<text text-anchor="middle" x="95" y="-30.3" font-family="Helvetica,sans-Serif" font-size="14.00" fill="White">Network_window</text>
</g>
<!-- Draw_Area&#45;&gt;Network_window -->
<g id="edge14" class="edge">
<title>Draw_Area&#45;&gt;Network_window</title>
<path fill="none" stroke="black" stroke-dasharray="1,5" d="M212.35,-389.19C177.17,-383.73 133.42,-370.71 108,-340 82.55,-309.26 96,-290.91 96,-251 96,-251 96,-251 96,-177 96,-137 95.6,-90.65 95.3,-62.08"/>
<polygon fill="black" stroke="black" points="98.8,-62.01 95.2,-52.05 91.8,-62.09 98.8,-62.01"/>
</g>
<!-- Plot_Area&#45;&gt;AreaView -->
<g id="edge9" class="edge">
<title>Plot_Area&#45;&gt;AreaView</title>
<path fill="none" stroke="black" stroke-dasharray="1,5" d="M271,-303.7C271,-295.98 271,-286.71 271,-278.11"/>
<polygon fill="black" stroke="black" points="274.5,-278.1 271,-268.1 267.5,-278.1 274.5,-278.1"/>
</g>
<!-- Ground&#45;&gt;AreaView -->
<g id="edge10" class="edge">
<title>Ground&#45;&gt;AreaView</title>
<path fill="none" stroke="black" stroke-dasharray="1,5" d="M181.66,-306.83C198.03,-296.6 220.38,-282.64 238.63,-271.23"/>
<polygon fill="black" stroke="black" points="240.58,-274.14 247.21,-265.87 236.87,-268.2 240.58,-274.14"/>
</g>
<!-- Field_window -->
<g id="node10" class="node">
<title>Field_window</title>
<ellipse fill="Red" stroke="black" cx="259" cy="-34" rx="66.89" ry="18"/>
<text text-anchor="middle" x="259" y="-30.3" font-family="Helvetica,sans-Serif" font-size="14.00" fill="White">Field_window</text>
</g>
<!-- Ground&#45;&gt;Field_window -->
<g id="edge15" class="edge">
<title>Ground&#45;&gt;Field_window</title>
<path fill="none" stroke="black" stroke-dasharray="1,5" d="M155.17,-303.96C147.01,-263.24 131.88,-158.46 174,-88 182.79,-73.29 197.41,-62.05 212.07,-53.79"/>
<polygon fill="black" stroke="black" points="213.92,-56.77 221.15,-49.03 210.67,-50.57 213.92,-56.77"/>
</g>
<!-- Active_Frame -->
<g id="node6" class="node">
<title>Active_Frame</title>
<ellipse fill="Red" stroke="black" cx="266" cy="-178" rx="68.49" ry="18"/>
<text text-anchor="middle" x="266" y="-174.3" font-family="Helvetica,sans-Serif" font-size="14.00" fill="White">Active_Frame</text>
</g>
<!-- AreaView&#45;&gt;Active_Frame -->
<g id="edge4" class="edge">
<title>AreaView&#45;&gt;Active_Frame</title>
<path fill="none" stroke="black" d="M269.76,-231.7C269.21,-223.98 268.55,-214.71 267.94,-206.11"/>
<polygon fill="black" stroke="black" points="271.43,-205.83 267.22,-196.1 264.44,-206.33 271.43,-205.83"/>
</g>
<!-- Satellite_window -->
<g id="node7" class="node">
<title>Satellite_window</title>
<ellipse fill="Red" stroke="black" cx="262" cy="-106" rx="79.09" ry="18"/>
<text text-anchor="middle" x="262" y="-102.3" font-family="Helvetica,sans-Serif" font-size="14.00" fill="White">Satellite_window</text>
</g>
<!-- Active_Frame&#45;&gt;Satellite_window -->
<g id="edge5" class="edge">
<title>Active_Frame&#45;&gt;Satellite_window</title>
<path fill="none" stroke="black" d="M265.01,-159.7C264.57,-151.98 264.04,-142.71 263.55,-134.11"/>
<polygon fill="black" stroke="black" points="267.04,-133.89 262.98,-124.1 260.05,-134.29 267.04,-133.89"/>
</g>
<!-- Satellite_window&#45;&gt;Genome_window -->
<g id="edge6" class="edge">
<title>Satellite_window&#45;&gt;Genome_window</title>
<path fill="none" stroke="black" d="M297.59,-89.81C322,-79.39 354.6,-65.47 380.85,-54.27"/>
<polygon fill="black" stroke="black" points="382.38,-57.42 390.2,-50.28 379.63,-50.99 382.38,-57.42"/>
</g>
<!-- Satellite_window&#45;&gt;Network_window -->
<g id="edge11" class="edge">
<title>Satellite_window&#45;&gt;Network_window</title>
<path fill="none" stroke="black" d="M225.76,-89.81C200.82,-79.35 167.47,-65.38 140.7,-54.16"/>
<polygon fill="black" stroke="black" points="141.74,-50.8 131.17,-50.16 139.04,-57.25 141.74,-50.8"/>
</g>
<!-- Satellite_window&#45;&gt;Field_window -->
<g id="edge12" class="edge">
<title>Satellite_window&#45;&gt;Field_window</title>
<path fill="none" stroke="black" d="M261.26,-87.7C260.93,-79.98 260.53,-70.71 260.16,-62.11"/>
<polygon fill="black" stroke="black" points="263.66,-61.95 259.73,-52.1 256.66,-62.25 263.66,-61.95"/>
</g>
<!-- Curves -->
<g id="node11" class="node">
<title>Curves</title>
<ellipse fill="Red" stroke="black" cx="253" cy="-466" rx="40.09" ry="18"/>
<text text-anchor="middle" x="253" y="-462.3" font-family="Helvetica,sans-Serif" font-size="14.00" fill="White">Curves</text>
</g>
<!-- Curves&#45;&gt;Draw_Area -->
<g id="edge16" class="edge">
<title>Curves&#45;&gt;Draw_Area</title>
<path fill="none" stroke="black" d="M256.39,-448.05C257.93,-440.35 259.79,-431.03 261.53,-422.36"/>
<polygon fill="black" stroke="black" points="265.02,-422.77 263.54,-412.28 258.15,-421.39 265.02,-422.77"/>
</g>
<!-- Curve -->
<g id="node12" class="node">
<title>Curve</title>
<ellipse fill="Red" stroke="black" cx="253" cy="-538" rx="35.19" ry="18"/>
<text text-anchor="middle" x="253" y="-534.3" font-family="Helvetica,sans-Serif" font-size="14.00" fill="White">Curve</text>
</g>
<!-- Curve&#45;&gt;Curves -->
<g id="edge17" class="edge">
<title>Curve&#45;&gt;Curves</title>
<path fill="none" stroke="black" stroke-dasharray="1,5" d="M253,-519.7C253,-511.98 253,-502.71 253,-494.11"/>
<polygon fill="black" stroke="black" points="256.5,-494.1 253,-484.1 249.5,-494.1 256.5,-494.1"/>
</g>
</g>
</svg>
