<?xml version="1.0" encoding="UTF-8" standalone="no"?>
<!DOCTYPE svg PUBLIC "-//W3C//DTD SVG 1.1//EN"
 "http://www.w3.org/Graphics/SVG/1.1/DTD/svg11.dtd">
<!-- Generated by graphviz version 3.0.0 (20220226.1711)
 -->
<!-- Title: Evolife Pages: 1 -->
<svg width="474pt" height="380pt"
 viewBox="0.00 0.00 474.00 380.00" xmlns="http://www.w3.org/2000/svg" xmlns:xlink="http://www.w3.org/1999/xlink">
<g id="graph0" class="graph" transform="scale(1 1) rotate(0) translate(4 376)">
<title>Evolife</title>
<polygon fill="#ffcf80" stroke="transparent" points="-4,4 -4,-376 470,-376 470,4 -4,4"/>
<g id="clust1" class="cluster">
<title>clusterWindow</title>
<polygon fill="#ffcf80" stroke="black" points="8,-8 8,-364 458,-364 458,-8 8,-8"/>
</g>
<!-- Evolife_Frame -->
<g id="node1" class="node">
<title>Evolife_Frame</title>
<polygon fill="Red" stroke="black" points="274.28,-34.54 274.28,-49.46 229.01,-60 164.99,-60 119.72,-49.46 119.72,-34.54 164.99,-24 229.01,-24 274.28,-34.54"/>
<polygon fill="none" stroke="black" points="278.27,-31.37 278.27,-52.63 229.47,-64 164.53,-64 115.73,-52.63 115.73,-31.37 164.53,-20 229.47,-20 278.27,-31.37"/>
<polygon fill="none" stroke="black" points="282.27,-28.19 282.27,-55.81 229.93,-68 164.07,-68 111.73,-55.81 111.73,-28.19 164.07,-16 229.93,-16 282.27,-28.19"/>
<text text-anchor="middle" x="197" y="-38.3" font-family="Helvetica,sans-Serif" font-size="14.00" fill="White">Evolife_Frame</text>
</g>
<!-- Simulation_Control -->
<g id="node2" class="node">
<title>Simulation_Control</title>
<ellipse fill="Red" stroke="black" cx="328" cy="-338" rx="88.28" ry="18"/>
<text text-anchor="middle" x="328" y="-334.3" font-family="Helvetica,sans-Serif" font-size="14.00" fill="White">Simulation_Control</text>
</g>
<!-- Simulation_Control_Frame -->
<g id="node3" class="node">
<title>Simulation_Control_Frame</title>
<ellipse fill="Red" stroke="black" cx="294" cy="-266" rx="120.48" ry="18"/>
<text text-anchor="middle" x="294" y="-262.3" font-family="Helvetica,sans-Serif" font-size="14.00" fill="White">Simulation_Control_Frame</text>
</g>
<!-- Simulation_Control&#45;&gt;Simulation_Control_Frame -->
<g id="edge1" class="edge">
<title>Simulation_Control&#45;&gt;Simulation_Control_Frame</title>
<path fill="none" stroke="black" d="M319.77,-320.05C315.9,-312.09 311.2,-302.41 306.88,-293.51"/>
<polygon fill="black" stroke="black" points="309.91,-291.74 302.39,-284.28 303.61,-294.8 309.91,-291.74"/>
</g>
<!-- Simulation_Display_Control_Frame -->
<g id="node4" class="node">
<title>Simulation_Display_Control_Frame</title>
<ellipse fill="Red" stroke="black" cx="294" cy="-194" rx="155.97" ry="18"/>
<text text-anchor="middle" x="294" y="-190.3" font-family="Helvetica,sans-Serif" font-size="14.00" fill="White">Simulation_Display_Control_Frame</text>
</g>
<!-- Simulation_Control_Frame&#45;&gt;Simulation_Display_Control_Frame -->
<g id="edge2" class="edge">
<title>Simulation_Control_Frame&#45;&gt;Simulation_Display_Control_Frame</title>
<path fill="none" stroke="black" d="M294,-247.7C294,-239.98 294,-230.71 294,-222.11"/>
<polygon fill="black" stroke="black" points="297.5,-222.1 294,-212.1 290.5,-222.1 297.5,-222.1"/>
</g>
<!-- Simulation_Frame -->
<g id="node5" class="node">
<title>Simulation_Frame</title>
<ellipse fill="Red" stroke="black" cx="197" cy="-122" rx="85.29" ry="18"/>
<text text-anchor="middle" x="197" y="-118.3" font-family="Helvetica,sans-Serif" font-size="14.00" fill="White">Simulation_Frame</text>
</g>
<!-- Simulation_Display_Control_Frame&#45;&gt;Simulation_Frame -->
<g id="edge3" class="edge">
<title>Simulation_Display_Control_Frame&#45;&gt;Simulation_Frame</title>
<path fill="none" stroke="black" d="M270.52,-176.05C257.8,-166.87 241.91,-155.41 228.17,-145.49"/>
<polygon fill="black" stroke="black" points="230.09,-142.56 219.93,-139.55 225.99,-148.24 230.09,-142.56"/>
</g>
<!-- Simulation_Frame&#45;&gt;Evolife_Frame -->
<g id="edge4" class="edge">
<title>Simulation_Frame&#45;&gt;Evolife_Frame</title>
<path fill="none" stroke="black" d="M197,-103.69C197,-96.21 197,-87.16 197,-78.36"/>
<polygon fill="black" stroke="black" points="200.5,-78.26 197,-68.26 193.5,-78.26 200.5,-78.26"/>
</g>
<!-- Active_Frame -->
<g id="node6" class="node">
<title>Active_Frame</title>
<ellipse fill="Red" stroke="black" cx="153" cy="-338" rx="68.49" ry="18"/>
<text text-anchor="middle" x="153" y="-334.3" font-family="Helvetica,sans-Serif" font-size="14.00" fill="White">Active_Frame</text>
</g>
<!-- Active_Frame&#45;&gt;Simulation_Control_Frame -->
<g id="edge5" class="edge">
<title>Active_Frame&#45;&gt;Simulation_Control_Frame</title>
<path fill="none" stroke="black" d="M183.59,-321.81C203.58,-311.89 229.95,-298.8 251.9,-287.9"/>
<polygon fill="black" stroke="black" points="253.61,-290.96 261.01,-283.38 250.49,-284.69 253.61,-290.96"/>
</g>
<!-- Plot_Area -->
<g id="node7" class="node">
<title>Plot_Area</title>
<ellipse fill="Red" stroke="black" cx="68" cy="-194" rx="51.99" ry="18"/>
<text text-anchor="middle" x="68" y="-190.3" font-family="Helvetica,sans-Serif" font-size="14.00" fill="White">Plot_Area</text>
</g>
<!-- Plot_Area&#45;&gt;Simulation_Frame -->
<g id="edge6" class="edge">
<title>Plot_Area&#45;&gt;Simulation_Frame</title>
<path fill="none" stroke="black" stroke-dasharray="1,5" d="M94.73,-178.5C113.24,-168.45 138.17,-154.92 158.78,-143.74"/>
<polygon fill="black" stroke="black" points="160.49,-146.8 167.61,-138.95 157.15,-140.64 160.49,-146.8"/>
</g>
</g>
</svg>
