<?xml version="1.0" encoding="UTF-8" standalone="no"?>
<!DOCTYPE svg PUBLIC "-//W3C//DTD SVG 1.1//EN"
 "http://www.w3.org/Graphics/SVG/1.1/DTD/svg11.dtd">
<!-- Generated by graphviz version 3.0.0 (20220226.1711)
 -->
<!-- Title: Ecology Pages: 1 -->
<svg width="378pt" height="404pt"
 viewBox="0.00 0.00 378.13 404.00" xmlns="http://www.w3.org/2000/svg" xmlns:xlink="http://www.w3.org/1999/xlink">
<g id="graph0" class="graph" transform="scale(1 1) rotate(0) translate(4 400)">
<title>Ecology</title>
<polygon fill="#ffcf80" stroke="transparent" points="-4,4 -4,-400 374.13,-400 374.13,4 -4,4"/>
<!-- Examiner -->
<g id="node1" class="node">
<title>Examiner</title>
<ellipse fill="Red" stroke="black" cx="275.39" cy="-234" rx="49.29" ry="18"/>
<text text-anchor="middle" x="275.39" y="-230.3" font-family="Helvetica,sans-Serif" font-size="14.00" fill="White">Examiner</text>
</g>
<!-- Meta_Examiner -->
<g id="node3" class="node">
<title>Meta_Examiner</title>
<ellipse fill="Red" stroke="black" cx="295.39" cy="-162" rx="74.99" ry="18"/>
<text text-anchor="middle" x="295.39" y="-158.3" font-family="Helvetica,sans-Serif" font-size="14.00" fill="White">Meta_Examiner</text>
</g>
<!-- Examiner&#45;&gt;Meta_Examiner -->
<g id="edge7" class="edge">
<title>Examiner&#45;&gt;Meta_Examiner</title>
<path fill="none" stroke="black" stroke-dasharray="1,5" d="M280.23,-216.05C282.46,-208.26 285.16,-198.82 287.65,-190.08"/>
<polygon fill="black" stroke="black" points="291.07,-190.85 290.46,-180.28 284.34,-188.93 291.07,-190.85"/>
</g>
<!-- Storage -->
<g id="node2" class="node">
<title>Storage</title>
<ellipse fill="Red" stroke="black" cx="275.39" cy="-378" rx="43.59" ry="18"/>
<text text-anchor="middle" x="275.39" y="-374.3" font-family="Helvetica,sans-Serif" font-size="14.00" fill="White">Storage</text>
</g>
<!-- Storage&#45;&gt;Examiner -->
<g id="edge6" class="edge">
<title>Storage&#45;&gt;Examiner</title>
<path fill="none" stroke="black" stroke-dasharray="1,5" d="M242.72,-365.87C223.78,-357.54 201.53,-344.07 190.39,-324 182.63,-310.01 182.63,-301.99 190.39,-288 199.35,-271.86 215.5,-259.99 231.33,-251.62"/>
<polygon fill="black" stroke="black" points="233.12,-254.64 240.56,-247.1 230.04,-248.36 233.12,-254.64"/>
</g>
<!-- Storage&#45;&gt;Meta_Examiner -->
<g id="edge1" class="edge">
<title>Storage&#45;&gt;Meta_Examiner</title>
<path fill="none" stroke="black" d="M308.06,-365.87C327,-357.54 349.25,-344.07 360.39,-324 386.01,-277.83 346.14,-219.47 318.41,-187.22"/>
<polygon fill="black" stroke="black" points="320.92,-184.77 311.67,-179.6 315.67,-189.41 320.92,-184.77"/>
</g>
<!-- Base_Examiner -->
<g id="node8" class="node">
<title>Base_Examiner</title>
<ellipse fill="Red" stroke="black" cx="275.39" cy="-306" rx="76.09" ry="18"/>
<text text-anchor="middle" x="275.39" y="-302.3" font-family="Helvetica,sans-Serif" font-size="14.00" fill="White">Base_Examiner</text>
</g>
<!-- Storage&#45;&gt;Base_Examiner -->
<g id="edge8" class="edge">
<title>Storage&#45;&gt;Base_Examiner</title>
<path fill="none" stroke="black" d="M275.39,-359.7C275.39,-351.98 275.39,-342.71 275.39,-334.11"/>
<polygon fill="black" stroke="black" points="278.89,-334.1 275.39,-324.1 271.89,-334.1 278.89,-334.1"/>
</g>
<!-- Observer -->
<g id="node4" class="node">
<title>Observer</title>
<ellipse fill="Red" stroke="black" cx="198.39" cy="-90" rx="49.29" ry="18"/>
<text text-anchor="middle" x="198.39" y="-86.3" font-family="Helvetica,sans-Serif" font-size="14.00" fill="White">Observer</text>
</g>
<!-- Meta_Examiner&#45;&gt;Observer -->
<g id="edge2" class="edge">
<title>Meta_Examiner&#45;&gt;Observer</title>
<path fill="none" stroke="black" d="M272.89,-144.76C259.51,-135.11 242.38,-122.75 227.92,-112.31"/>
<polygon fill="black" stroke="black" points="229.93,-109.44 219.77,-106.43 225.83,-115.12 229.93,-109.44"/>
</g>
<!-- Evolife_Observer -->
<g id="node7" class="node">
<title>Evolife_Observer</title>
<ellipse fill="Red" stroke="black" cx="198.39" cy="-18" rx="83.39" ry="18"/>
<text text-anchor="middle" x="198.39" y="-14.3" font-family="Helvetica,sans-Serif" font-size="14.00" fill="White">Evolife_Observer</text>
</g>
<!-- Observer&#45;&gt;Evolife_Observer -->
<g id="edge5" class="edge">
<title>Observer&#45;&gt;Evolife_Observer</title>
<path fill="none" stroke="black" d="M198.39,-71.7C198.39,-63.98 198.39,-54.71 198.39,-46.11"/>
<polygon fill="black" stroke="black" points="201.89,-46.1 198.39,-36.1 194.89,-46.1 201.89,-46.1"/>
</g>
<!-- Generic_Observer -->
<g id="node5" class="node">
<title>Generic_Observer</title>
<ellipse fill="Red" stroke="black" cx="101.39" cy="-234" rx="87.18" ry="18"/>
<text text-anchor="middle" x="101.39" y="-230.3" font-family="Helvetica,sans-Serif" font-size="14.00" fill="White">Generic_Observer</text>
</g>
<!-- Experiment_Observer -->
<g id="node6" class="node">
<title>Experiment_Observer</title>
<ellipse fill="Red" stroke="black" cx="101.39" cy="-162" rx="101.28" ry="18"/>
<text text-anchor="middle" x="101.39" y="-158.3" font-family="Helvetica,sans-Serif" font-size="14.00" fill="White">Experiment_Observer</text>
</g>
<!-- Generic_Observer&#45;&gt;Experiment_Observer -->
<g id="edge3" class="edge">
<title>Generic_Observer&#45;&gt;Experiment_Observer</title>
<path fill="none" stroke="black" d="M101.39,-215.7C101.39,-207.98 101.39,-198.71 101.39,-190.11"/>
<polygon fill="black" stroke="black" points="104.89,-190.1 101.39,-180.1 97.89,-190.1 104.89,-190.1"/>
</g>
<!-- Experiment_Observer&#45;&gt;Observer -->
<g id="edge4" class="edge">
<title>Experiment_Observer&#45;&gt;Observer</title>
<path fill="none" stroke="black" d="M124.38,-144.41C137.65,-134.84 154.48,-122.69 168.74,-112.4"/>
<polygon fill="black" stroke="black" points="171.16,-114.96 177.23,-106.27 167.07,-109.29 171.16,-114.96"/>
</g>
<!-- Base_Examiner&#45;&gt;Examiner -->
<g id="edge9" class="edge">
<title>Base_Examiner&#45;&gt;Examiner</title>
<path fill="none" stroke="black" stroke-dasharray="1,5" d="M275.39,-287.7C275.39,-279.98 275.39,-270.71 275.39,-262.11"/>
<polygon fill="black" stroke="black" points="278.89,-262.1 275.39,-252.1 271.89,-262.1 278.89,-262.1"/>
</g>
</g>
</svg>
