<?xml version="1.0" encoding="UTF-8" standalone="no"?>
<!DOCTYPE svg PUBLIC "-//W3C//DTD SVG 1.1//EN"
 "http://www.w3.org/Graphics/SVG/1.1/DTD/svg11.dtd">
<!-- Generated by graphviz version 3.0.0 (20220226.1711)
 -->
<!-- Title: Ecology Pages: 1 -->
<svg width="537pt" height="332pt"
 viewBox="0.00 0.00 537.49 332.00" xmlns="http://www.w3.org/2000/svg" xmlns:xlink="http://www.w3.org/1999/xlink">
<g id="graph0" class="graph" transform="scale(1 1) rotate(0) translate(4 328)">
<title>Ecology</title>
<polygon fill="#ffcf80" stroke="transparent" points="-4,4 -4,-328 533.49,-328 533.49,4 -4,4"/>
<!-- DNA -->
<g id="node1" class="node">
<title>DNA</title>
<ellipse fill="Red" stroke="black" cx="30.55" cy="-306" rx="30.59" ry="18"/>
<text text-anchor="middle" x="30.55" y="-302.3" font-family="Helvetica,sans-Serif" font-size="14.00" fill="White">DNA</text>
</g>
<!-- Genome -->
<g id="node2" class="node">
<title>Genome</title>
<ellipse fill="Red" stroke="black" cx="99.55" cy="-234" rx="46.59" ry="18"/>
<text text-anchor="middle" x="99.55" y="-230.3" font-family="Helvetica,sans-Serif" font-size="14.00" fill="White">Genome</text>
</g>
<!-- DNA&#45;&gt;Genome -->
<g id="edge1" class="edge">
<title>DNA&#45;&gt;Genome</title>
<path fill="none" stroke="black" d="M45.18,-290.15C54.22,-280.98 66.02,-269.01 76.32,-258.56"/>
<polygon fill="black" stroke="black" points="78.96,-260.87 83.49,-251.29 73.98,-255.96 78.96,-260.87"/>
</g>
<!-- EvolifeIndividual -->
<g id="node3" class="node">
<title>EvolifeIndividual</title>
<ellipse fill="Red" stroke="black" cx="272.55" cy="-162" rx="77.19" ry="18"/>
<text text-anchor="middle" x="272.55" y="-158.3" font-family="Helvetica,sans-Serif" font-size="14.00" fill="White">EvolifeIndividual</text>
</g>
<!-- Genome&#45;&gt;EvolifeIndividual -->
<g id="edge2" class="edge">
<title>Genome&#45;&gt;EvolifeIndividual</title>
<path fill="none" stroke="black" d="M130.48,-220.49C157.05,-209.73 195.75,-194.07 226.06,-181.81"/>
<polygon fill="black" stroke="black" points="227.62,-184.96 235.58,-177.96 224.99,-178.47 227.62,-184.96"/>
</g>
<!-- EvolifeGroup -->
<g id="node10" class="node">
<title>EvolifeGroup</title>
<ellipse fill="Red" stroke="black" cx="338.55" cy="-90" rx="64.99" ry="18"/>
<text text-anchor="middle" x="338.55" y="-86.3" font-family="Helvetica,sans-Serif" font-size="14.00" fill="White">EvolifeGroup</text>
</g>
<!-- EvolifeIndividual&#45;&gt;EvolifeGroup -->
<g id="edge9" class="edge">
<title>EvolifeIndividual&#45;&gt;EvolifeGroup</title>
<path fill="none" stroke="black" stroke-dasharray="1,5" d="M288.52,-144.05C296.71,-135.37 306.83,-124.64 315.81,-115.11"/>
<polygon fill="black" stroke="black" points="318.4,-117.47 322.72,-107.79 313.31,-112.66 318.4,-117.47"/>
</g>
<!-- Phenome -->
<g id="node4" class="node">
<title>Phenome</title>
<ellipse fill="Red" stroke="black" cx="214.55" cy="-234" rx="50.89" ry="18"/>
<text text-anchor="middle" x="214.55" y="-230.3" font-family="Helvetica,sans-Serif" font-size="14.00" fill="White">Phenome</text>
</g>
<!-- Phenome&#45;&gt;EvolifeIndividual -->
<g id="edge3" class="edge">
<title>Phenome&#45;&gt;EvolifeIndividual</title>
<path fill="none" stroke="black" d="M228.29,-216.41C235.34,-207.91 244.07,-197.37 251.9,-187.91"/>
<polygon fill="black" stroke="black" points="254.81,-189.89 258.5,-179.96 249.42,-185.42 254.81,-189.89"/>
</g>
<!-- Alliances -->
<g id="node5" class="node">
<title>Alliances</title>
<ellipse fill="Red" stroke="black" cx="331.55" cy="-234" rx="48.19" ry="18"/>
<text text-anchor="middle" x="331.55" y="-230.3" font-family="Helvetica,sans-Serif" font-size="14.00" fill="White">Alliances</text>
</g>
<!-- Alliances&#45;&gt;EvolifeIndividual -->
<g id="edge4" class="edge">
<title>Alliances&#45;&gt;EvolifeIndividual</title>
<path fill="none" stroke="black" d="M317.57,-216.41C310.32,-207.82 301.34,-197.16 293.3,-187.63"/>
<polygon fill="black" stroke="black" points="295.96,-185.35 286.84,-179.96 290.61,-189.86 295.96,-185.35"/>
</g>
<!-- Gene -->
<g id="node6" class="node">
<title>Gene</title>
<ellipse fill="Red" stroke="black" cx="112.55" cy="-306" rx="33.6" ry="18"/>
<text text-anchor="middle" x="112.55" y="-302.3" font-family="Helvetica,sans-Serif" font-size="14.00" fill="White">Gene</text>
</g>
<!-- Gene&#45;&gt;Genome -->
<g id="edge8" class="edge">
<title>Gene&#45;&gt;Genome</title>
<path fill="none" stroke="black" stroke-dasharray="1,5" d="M109.4,-288.05C107.97,-280.35 106.24,-271.03 104.63,-262.36"/>
<polygon fill="black" stroke="black" points="108.02,-261.47 102.76,-252.28 101.14,-262.75 108.02,-261.47"/>
</g>
<!-- Phene -->
<g id="node7" class="node">
<title>Phene</title>
<ellipse fill="Red" stroke="black" cx="214.55" cy="-306" rx="37.89" ry="18"/>
<text text-anchor="middle" x="214.55" y="-302.3" font-family="Helvetica,sans-Serif" font-size="14.00" fill="White">Phene</text>
</g>
<!-- Phene&#45;&gt;Phenome -->
<g id="edge7" class="edge">
<title>Phene&#45;&gt;Phenome</title>
<path fill="none" stroke="black" stroke-dasharray="1,5" d="M214.55,-287.7C214.55,-279.98 214.55,-270.71 214.55,-262.11"/>
<polygon fill="black" stroke="black" points="218.05,-262.1 214.55,-252.1 211.05,-262.1 218.05,-262.1"/>
</g>
<!-- Club -->
<g id="node8" class="node">
<title>Club</title>
<ellipse fill="Red" stroke="black" cx="331.55" cy="-306" rx="29.8" ry="18"/>
<text text-anchor="middle" x="331.55" y="-302.3" font-family="Helvetica,sans-Serif" font-size="14.00" fill="White">Club</text>
</g>
<!-- Club&#45;&gt;Alliances -->
<g id="edge6" class="edge">
<title>Club&#45;&gt;Alliances</title>
<path fill="none" stroke="black" stroke-dasharray="1,5" d="M331.55,-287.7C331.55,-279.98 331.55,-270.71 331.55,-262.11"/>
<polygon fill="black" stroke="black" points="335.05,-262.1 331.55,-252.1 328.05,-262.1 335.05,-262.1"/>
</g>
<!-- Individual -->
<g id="node9" class="node">
<title>Individual</title>
<ellipse fill="Red" stroke="black" cx="446.55" cy="-234" rx="49.29" ry="18"/>
<text text-anchor="middle" x="446.55" y="-230.3" font-family="Helvetica,sans-Serif" font-size="14.00" fill="White">Individual</text>
</g>
<!-- Individual&#45;&gt;EvolifeIndividual -->
<g id="edge5" class="edge">
<title>Individual&#45;&gt;EvolifeIndividual</title>
<path fill="none" stroke="black" d="M414.63,-220.16C387.9,-209.41 349.37,-193.91 319.18,-181.76"/>
<polygon fill="black" stroke="black" points="320.28,-178.43 309.69,-177.94 317.67,-184.92 320.28,-178.43"/>
</g>
<!-- EvolifePopulation -->
<g id="node11" class="node">
<title>EvolifePopulation</title>
<ellipse fill="Red" stroke="black" cx="406.55" cy="-18" rx="82.59" ry="18"/>
<text text-anchor="middle" x="406.55" y="-14.3" font-family="Helvetica,sans-Serif" font-size="14.00" fill="White">EvolifePopulation</text>
</g>
<!-- EvolifeGroup&#45;&gt;EvolifePopulation -->
<g id="edge10" class="edge">
<title>EvolifeGroup&#45;&gt;EvolifePopulation</title>
<path fill="none" stroke="black" stroke-dasharray="1,5" d="M354.66,-72.41C363.09,-63.73 373.57,-52.95 382.9,-43.34"/>
<polygon fill="black" stroke="black" points="385.62,-45.57 390.08,-35.96 380.6,-40.69 385.62,-45.57"/>
</g>
<!-- Group -->
<g id="node12" class="node">
<title>Group</title>
<ellipse fill="Red" stroke="black" cx="404.55" cy="-162" rx="36.29" ry="18"/>
<text text-anchor="middle" x="404.55" y="-158.3" font-family="Helvetica,sans-Serif" font-size="14.00" fill="White">Group</text>
</g>
<!-- Group&#45;&gt;EvolifeGroup -->
<g id="edge11" class="edge">
<title>Group&#45;&gt;EvolifeGroup</title>
<path fill="none" stroke="black" d="M389.9,-145.46C381.55,-136.61 370.89,-125.31 361.46,-115.3"/>
<polygon fill="black" stroke="black" points="363.95,-112.84 354.54,-107.96 358.85,-117.64 363.95,-112.84"/>
</g>
<!-- Population -->
<g id="node13" class="node">
<title>Population</title>
<ellipse fill="Red" stroke="black" cx="475.55" cy="-90" rx="53.89" ry="18"/>
<text text-anchor="middle" x="475.55" y="-86.3" font-family="Helvetica,sans-Serif" font-size="14.00" fill="White">Population</text>
</g>
<!-- Population&#45;&gt;EvolifePopulation -->
<g id="edge12" class="edge">
<title>Population&#45;&gt;EvolifePopulation</title>
<path fill="none" stroke="black" d="M459.54,-72.76C450.91,-64.01 440.09,-53.03 430.48,-43.28"/>
<polygon fill="black" stroke="black" points="432.94,-40.79 423.43,-36.12 427.95,-45.7 432.94,-40.79"/>
</g>
</g>
</svg>
